:version 1.10
:name ASF
:units
  mass 1
  length 1
  angle deg
:documentation
  ASF file generated by Kaydara
:root
  axis xyz
  order  tx ty tz rx ry rz
  position 0 0 0
  orientation 0 0 0
:bonedata
  begin
    id 1
    name LeftUpLegDummy
    direction 1 -2.30186e-007 -8.31532e-007
    length 2.93387
    axis 0 0 0 xyz
  end
  begin
    id 2
    name LeftUpLeg
    direction -1.82929e-007 -1 -1.48925e-009
    length 17.3336
    axis -3.48766 0.00143442 -0.000521554 xyz
    dof rx ry rz
  end
  begin
    id 3
    name LeftLeg
    direction -1.82929e-007 -1 -5.23717e-011
    length 14.9995
    axis 3.68178 -0.00654042 -0.000282425 xyz
    dof rx ry rz
  end
  begin
    id 4
    name LeftFoot
    direction 8.31532e-007 -4.54534e-011 1
    length 6.74421
    axis 1.87234e-006 4.66016e-005 -5.96866e-006 xyz
    dof rx ry rz
  end
  begin
    id 5
    name LeftToes
    direction 0.00818058 -0.00485161 0.999955
    length 3.85048
    axis 1.06247e-005 4.65869e-005 -5.96999e-006 xyz
    dof rx ry rz
  end
  begin
    id 6
    name SpineDummy
    direction -5.8607e-008 0.943407 -0.331637
    length 5.93572
    axis 0 0 0 xyz
  end
  begin
    id 7
    name Spine
    direction -1.04988e-007 0.999988 0.00495137
    length 10.1015
    axis -0.001389 0.000121417 6.61666e-006 xyz
    dof rx ry rz
  end
  begin
    id 8
    name Spine1
    direction 0 0 0
    length 0
    axis -0.001389 0.00012144 6.56766e-006 xyz
    dof rx ry rz
  end
  begin
    id 9
    name RightShoulderDummy
    direction -0.98348 0.17941 -0.0240696
    length 3.59882
    axis -0.001389 0.00012144 6.56766e-006 xyz
  end
  begin
    id 10
    name RightShoulder
    direction -0.978693 0.204882 0.0135597
    length 2.70001
    axis 0.215806 0.000203631 -0.00679732 xyz
    dof rx ry rz
  end
  begin
    id 11
    name RightArm
    direction -1 3.85509e-006 8.31394e-007
    length 10.2459
    axis -23.2009 -0.134239 -0.964098 xyz
    dof rx ry rz
  end
  begin
    id 12
    name RightForeArm
    direction -1 3.85569e-006 8.3129e-007
    length 8.16799
    axis -9.92322 0.0658061 0.17887 xyz
    dof rx ry rz
  end
  begin
    id 13
    name RightHand
    direction -0.992843 -0.0414604 0.112003
    length 5.28593
    axis -0.00960638 0.00330669 -0.185225 xyz
    dof rx ry rz
  end
  begin
    id 14
    name LeftShoulder1Dummy
    direction 0.983523 0.179172 -0.0240748
    length 3.59866
    axis -0.001389 0.00012144 6.56766e-006 xyz
  end
  begin
    id 15
    name LeftShoulder1
    direction 0.978627 0.205195 0.0135605
    length 2.70019
    axis -0.001389 0.00012144 6.57583e-006 xyz
    dof rx ry rz
  end
  begin
    id 16
    name LeftArm
    direction 1 3.51895e-006 -8.60188e-007
    length 10.2459
    axis -23.1894 0.134785 0.967513 xyz
    dof rx ry rz
  end
  begin
    id 17
    name LeftForeArm
    direction 1 3.51921e-006 -7.32029e-007
    length 8.16799
    axis -9.91835 -0.0656957 -0.177789 xyz
    dof rx ry rz
  end
  begin
    id 18
    name LeftHand
    direction 0.992938 -0.0411636 0.11126
    length 5.32135
    axis -0.00960237 -0.00340661 0.185177 xyz
    dof rx ry rz
  end
  begin
    id 19
    name HEadDummy
    direction 1.01974e-006 0.999861 -0.016675
    length 2.99946
    axis -0.001389 0.00012144 6.56766e-006 xyz
  end
  begin
    id 20
    name HEad
    direction -0.0222689 0.980941 0.193023
    length 5.12695
    axis -0.001389 0.00012144 6.56766e-006 xyz
    dof rx ry rz
  end
  begin
    id 21
    name RightUpLegDummy
    direction -1 2.30186e-007 8.31532e-007
    length 2.93387
    axis 0 0 0 xyz
  end
  begin
    id 22
    name RightUpLeg
    direction -1.82966e-007 -1 1.56832e-007
    length 17.3336
    axis -3.4909 -0.000906625 0.00028951 xyz
    dof rx ry rz
  end
  begin
    id 23
    name RightLeg
    direction -1.82786e-007 -1 -1.80317e-007
    length 14.9995
    axis 3.68513 0.0193739 -0.131021 xyz
    dof rx ry rz
  end
  begin
    id 24
    name RightFoot
    direction 8.31721e-007 -4.63324e-011 1
    length 6.74421
    axis 4.81691e-005 -0.120479 -0.188785 xyz
    dof rx ry rz
  end
  begin
    id 25
    name RightToes
    direction 0.00124746 -0.014064 0.9999
    length 3.85082
    axis 0.000481921 0.542163 -0.142575 xyz
    dof rx ry rz
  end
:hierarchy
  begin
    root LeftUpLegDummy SpineDummy RightUpLegDummy
    LeftUpLegDummy LeftUpLeg
    LeftUpLeg LeftLeg
    LeftLeg LeftFoot
    LeftFoot LeftToes
    SpineDummy Spine
    Spine Spine1
    Spine1 RightShoulderDummy LeftShoulder1Dummy HEadDummy
    RightShoulderDummy RightShoulder
    RightShoulder RightArm
    RightArm RightForeArm
    RightForeArm RightHand
    LeftShoulder1Dummy LeftShoulder1
    LeftShoulder1 LeftArm
    LeftArm LeftForeArm
    LeftForeArm LeftHand
    HEadDummy HEad
    RightUpLegDummy RightUpLeg
    RightUpLeg RightLeg
    RightLeg RightFoot
    RightFoot RightToes
  end

:SAMPLES-PER-SECOND 30
:FULLY-SPECIFIED
:DEGREES
70
root  -14.2988 33.8648 -6.08772 3.40453 31.1996 -5.4257
LeftUpLeg  -22.7334 10.5805 2.52398
LeftLeg  5.71964 -0.826319 -0.0300596
LeftFoot  16.9704 0.0341568 -0.228962
LeftToes  -18.9755 6.91067e-007 1.07128e-007
Spine  2.26863 1.32133 1.60227
Spine1  4.49577 2.70034 3.12322
RightShoulder  0.0379151 6.52036 4.17497
RightArm  -35.7682 -9.26219 69.9905
RightForeArm  18.9176 25.6497 4.85261
RightHand  0.40785 -6.18965 -7.15496
LeftShoulder1  0.00726423 -0.615988 -7.04127
LeftArm  -14.8825 16.2521 -71.638
LeftForeArm  24.6822 -30.1166 -5.86452
LeftHand  0.11144 4.48944 2.46866
HEad  2.68718 -4.40961 -0.722865
RightUpLeg  -5.298 -9.5138 5.62048
RightLeg  13.1923 9.27876 1.54953
RightFoot  -4.74731 -0.0477197 -0.773738
RightToes  -22.2361 -0.0942848 -0.194553
71
root  -13.7326 33.9024 -5.56131 3.98736 29.251 -4.07479
LeftUpLeg  -21.8839 11.5428 1.56751
LeftLeg  7.48557 -0.302551 -0.0209779
LeftFoot  15.2591 0.00929073 -0.0693671
LeftToes  -17.1756 6.91067e-007 1.07128e-007
Spine  2.09101 1.34072 0.916199
Spine1  4.12042 2.73952 1.80512
RightShoulder  0.0319663 6.65858 4.48264
RightArm  -36.3992 -10.6589 70.9393
RightForeArm  18.7267 24.7208 4.65178
RightHand  0.438319 -6.35228 -7.50876
LeftShoulder1  0.00844195 -0.481425 -7.36123
LeftArm  -15.8902 15.2743 -70.4093
LeftForeArm  24.7441 -27.7733 -5.32149
LeftHand  0.131124 4.62962 2.86869
HEad  2.09684 -3.67476 -0.479215
RightUpLeg  -4.30622 -7.5009 3.88659
RightLeg  14.0292 9.06583 1.64992
RightFoot  -5.57298 -0.0615227 -0.886544
RightToes  -23.0007 -0.0988104 -0.2005
72
root  -13.1579 33.9969 -5.08212 4.50214 27.0949 -2.98388
LeftUpLeg  -20.8892 12.1253 0.700159
LeftLeg  8.68528 1.19175 0.103329
LeftFoot  13.3651 -0.0333308 0.284469
LeftToes  -13.2684 6.91067e-007 1.07128e-007
Spine  1.88047 1.47293 0.28984
Spine1  3.69244 2.99768 0.600996
RightShoulder  0.0250578 6.80733 4.50088
RightArm  -37.8013 -12.2968 72.2285
RightForeArm  19.404 23.2803 4.34649
RightHand  0.435241 -6.28396 -7.5385
LeftShoulder1  0.00916345 -0.236816 -7.69434
LeftArm  -17.3695 14.6077 -69.2723
LeftForeArm  24.6321 -25.8809 -4.90048
LeftHand  0.152062 4.82367 3.23447
HEad  1.66949 -2.8939 -0.542634
RightUpLeg  -3.66842 -5.26724 2.33435
RightLeg  15.0113 8.76049 1.7495
RightFoot  -5.8091 -0.064455 -0.89287
RightToes  -23.7135 -0.103112 -0.205988
73
root  -12.593 34.1238 -4.63057 4.70713 24.7606 -2.55469
LeftUpLeg  -19.2191 12.0945 0.487917
LeftLeg  8.47471 3.52742 0.294602
LeftFoot  12.1188 -0.0795959 0.749808
LeftToes  -11.1648 6.91067e-007 1.07128e-007
Spine  1.68051 1.74819 -0.0565893
Spine1  3.29439 3.53533 -0.0531718
RightShoulder  0.019159 6.93581 4.16704
RightArm  -37.9395 -14.1539 73.1256
RightForeArm  19.806 21.5163 3.98177
RightHand  0.435963 -6.42732 -7.37524
LeftShoulder1  0.00956514 -0.0987224 -8.05503
LeftArm  -18.9878 14.298 -68.4797
LeftForeArm  24.5165 -24.434 -4.58796
LeftHand  0.173247 4.99028 3.59919
HEad  1.25177 -2.18114 -1.07761
RightUpLeg  -3.2532 -3.62163 1.20196
RightLeg  16.0883 9.3452 2.04738
RightFoot  -5.24712 -0.0568906 -0.864082
RightToes  -25.4623 -0.113955 -0.219224
74
root  -12.0699 34.2388 -4.22675 5.11224 22.9559 -2.31121
LeftUpLeg  -17.6039 11.0992 0.394148
LeftLeg  7.3002 6.22664 0.392139
LeftFoot  11.6423 -0.129332 1.26853
LeftToes  -10.5045 6.91067e-007 1.07128e-007
Spine  1.4586 1.8657 -0.283363
Spine1  2.85446 3.75652 -0.483168
RightShoulder  0.0134627 7.13861 3.82894
RightArm  -37.5223 -15.8994 73.641
RightForeArm  21.0986 19.684 3.61255
RightHand  0.396469 -6.61447 -6.47641
LeftShoulder1  0.00978343 0.0645778 -8.25704
LeftArm  -20.2251 14.1964 -67.9336
LeftForeArm  24.6213 -23.3888 -4.36678
LeftHand  0.201605 5.15405 4.10157
HEad  0.746054 -1.52405 -1.54758
RightUpLeg  -3.39522 -2.74262 0.173785
RightLeg  17.4453 10.3849 2.52975
RightFoot  -4.5314 -0.0479938 -0.835588
RightToes  -27.9199 -0.129863 -0.237252
75
root  -11.5791 34.305 -3.83957 5.24652 21.7627 -2.06791
LeftUpLeg  -16.9622 11.0804 -0.000565156
LeftLeg  8.27915 7.34397 0.587958
LeftFoot  10.0752 -0.11462 1.30022
LeftToes  -9.19605 6.91067e-007 1.07128e-007
Spine  1.3766 1.8154 -0.45408
Spine1  2.69494 3.64471 -0.806628
RightShoulder  0.00804765 7.28485 3.70733
RightArm  -37.4069 -17.3982 73.8512
RightForeArm  23.6633 18.1041 3.30092
RightHand  0.347933 -6.69998 -5.56327
LeftShoulder1  0.00995472 0.0836322 -8.279
LeftArm  -20.5878 14.2087 -67.458
LeftForeArm  24.6567 -22.7274 -4.22869
LeftHand  0.216491 5.1883 4.39968
HEad  0.100807 -1.04856 -1.67712
RightUpLeg  -3.35897 -2.58264 -0.875314
RightLeg  18.9668 11.5387 3.13049
RightFoot  -4.11836 -0.0442041 -0.85198
RightToes  -30.4928 -0.147329 -0.255376
76
root  -11.1198 34.34 -3.48816 5.1521 20.5628 -1.99944
LeftUpLeg  -16.5097 11.9831 -0.387315
LeftLeg  9.72537 7.56938 0.797902
LeftFoot  8.10807 -0.0768403 1.08413
LeftToes  -7.19361 6.91067e-007 1.07128e-007
Spine  1.42116 1.80146 -0.566133
Spine1  2.78608 3.61155 -1.01624
RightShoulder  0.00494413 7.51884 3.86648
RightArm  -38.1092 -18.7959 73.8319
RightForeArm  26.0929 16.875 3.0621
RightHand  0.337531 -6.68174 -5.4019
LeftShoulder1  0.0102154 0.0309853 -8.28468
LeftArm  -20.2944 14.1081 -66.919
LeftForeArm  24.7637 -22.2896 -4.13805
LeftHand  0.207512 5.19151 4.19928
HEad  -0.786157 -0.669208 -1.55244
RightUpLeg  -3.40294 -2.11778 -1.70546
RightLeg  20.7507 12.3302 3.75254
RightFoot  -3.74124 -0.0396311 -0.836005
RightToes  -33.279 -0.16714 -0.274097
77
root  -10.71 34.374 -3.17923 5.08617 19.4154 -2.05276
LeftUpLeg  -15.7981 12.7251 -0.606795
LeftLeg  10.2311 7.89883 0.902735
LeftFoot  6.78449 -0.056311 0.949964
LeftToes  -6.30811 6.91067e-007 1.07128e-007
Spine  1.45157 1.78264 -0.618993
Spine1  2.84634 3.57028 -1.10914
RightShoulder  0.00283835 7.68296 4.17263
RightArm  -39.9556 -20.0935 73.7828
RightForeArm  27.5515 15.7611 2.84848
RightHand  0.354261 -6.47262 -5.88301
LeftShoulder1  0.0107019 0.00174431 -8.37752
LeftArm  -19.5817 13.9524 -66.3065
LeftForeArm  24.7737 -21.6594 -4.00862
LeftHand  0.195453 5.20325 3.92432
HEad  -1.52259 -0.18727 -1.37333
RightUpLeg  -3.8377 -1.45674 -2.30599
RightLeg  22.9076 12.7567 4.40373
RightFoot  -3.25278 -0.0323245 -0.761025
RightToes  -36.014 -0.18745 -0.291517
78
root  -10.3552 34.4042 -2.90815 5.06531 18.501 -2.1427
LeftUpLeg  -15.132 13.1498 -0.739446
LeftLeg  10.4814 8.28132 0.982693
LeftFoot  5.71566 -0.0420256 0.841836
LeftToes  -5.76727 6.91067e-007 1.07128e-007
Spine  1.48416 1.65669 -0.638417
Spine1  2.91353 3.31473 -1.13962
RightShoulder  0.00138022 7.78201 4.46127
RightArm  -42.18 -21.2483 73.8306
RightForeArm  27.5399 15.3645 2.77322
RightHand  0.376759 -6.54365 -6.20714
LeftShoulder1  0.0115507 0.0344298 -8.48027
LeftArm  -19.3623 13.7337 -65.7686
LeftForeArm  25.0668 -20.8417 -3.84233
LeftHand  0.188462 5.12839 3.83126
HEad  -2.05819 0.423774 -1.28577
RightUpLeg  -4.68721 -1.2975 -2.77996
RightLeg  25.5841 12.9834 5.1602
RightFoot  -2.65224 -0.023581 -0.641245
RightToes  -38.6536 -0.207818 -0.307391
79
root  -10.0546 34.4168 -2.67912 5.06596 17.8649 -2.03832
LeftUpLeg  -14.3378 13.0853 -0.984737
LeftLeg  10.2968 8.87868 1.02426
LeftFoot  4.99179 -0.0344779 0.790954
LeftToes  -5.67031 6.91067e-007 1.07128e-007
Spine  1.54797 1.42447 -0.708908
Spine1  3.04305 2.847 -1.27016
RightShoulder  0.000289736 7.74201 4.50766
RightArm  -44.2465 -22.2225 74.3011
RightForeArm  27.0083 15.9835 2.89103
RightHand  0.377463 -6.73961 -6.02797
LeftShoulder1  0.0128981 -0.00628356 -8.49254
LeftArm  -19.4971 13.4958 -65.247
LeftForeArm  25.3056 -19.8915 -3.65149
LeftHand  0.189206 5.18999 3.84188
HEad  -2.47878 1.07141 -1.285
RightUpLeg  -5.96681 -2.1884 -3.32897
RightLeg  28.9512 12.7172 5.92886
RightFoot  -2.02585 -0.01531 -0.488521
RightToes  -41.2922 -0.228888 -0.322305
80
root  -9.80064 34.4135 -2.48696 4.97727 17.5294 -2.02133
LeftUpLeg  -13.6229 12.932 -1.11746
LeftLeg  10.1478 9.25294 1.04285
LeftFoot  4.32631 -0.0281192 0.717366
LeftToes  -5.89885 6.91067e-007 1.07128e-007
Spine  1.67335 1.11884 -0.767558
Spine1  3.29195 2.23305 -1.37269
RightShoulder  -0.000628846 7.57931 4.5228
RightArm  -45.1339 -22.9971 74.907
RightForeArm  26.2263 17.2371 3.13188
RightHand  0.37214 -6.89445 -5.79636
LeftShoulder1  0.0148805 -0.0964972 -8.54423
LeftArm  -19.7307 13.0861 -64.6111
LeftForeArm  25.489 -18.8938 -3.45367
LeftHand  0.193254 5.23715 3.84861
HEad  -2.97849 1.6766 -1.34622
RightUpLeg  -7.42901 -3.70604 -3.61511
RightLeg  32.5753 11.8452 6.45539
RightFoot  -1.28989 -0.0075463 -0.292975
RightToes  -43.1446 -0.244078 -0.332188
81
root  -9.58526 34.4 -2.30844 4.82074 17.3257 -2.10956
LeftUpLeg  -13.0927 13.148 -1.14956
LeftLeg  10.3272 9.12887 1.05779
LeftFoot  3.49714 -0.0185421 0.576726
LeftToes  -6.05012 6.91067e-007 1.07128e-007
Spine  1.82362 0.83869 -0.820445
Spine1  3.58652 1.66746 -1.45222
RightShoulder  -0.00141834 7.42593 4.58761
RightArm  -45.2263 -23.7168 75.5244
RightForeArm  25.4681 18.8303 3.44285
RightHand  0.35246 -6.84507 -5.51299
LeftShoulder1  0.0188096 -0.230013 -8.73034
LeftArm  -19.7773 12.439 -63.7997
LeftForeArm  25.8419 -17.7686 -3.23345
LeftHand  0.19899 5.31926 3.90669
HEad  -3.4587 2.12309 -1.45672
RightUpLeg  -8.87926 -5.40892 -3.62437
RightLeg  35.9852 10.576 6.60666
RightFoot  -0.625962 -0.00273165 -0.12265
RightToes  -43.1687 -0.244279 -0.332313
82
root  -9.41133 34.3963 -2.14799 4.70799 17.3248 -2.2345
LeftUpLeg  -12.6115 13.1988 -1.12245
LeftLeg  10.3203 9.03321 1.04569
LeftFoot  2.86771 -0.0122057 0.473632
LeftToes  -6.03765 6.91067e-007 1.07128e-007
Spine  1.93323 0.574322 -0.895914
Spine1  3.79322 1.12976 -1.56234
RightShoulder  -0.00204892 7.19272 4.65123
RightArm  -45.1351 -24.2205 76.1876
RightForeArm  24.9936 20.0904 3.69313
RightHand  0.325154 -6.67701 -5.19455
LeftShoulder1  0.0248818 -0.392956 -8.8431
LeftArm  -20.0328 11.8495 -63.0562
LeftForeArm  26.5056 -17.197 -3.12253
LeftHand  0.20669 5.39077 4.01312
HEad  -3.72865 2.39168 -1.52498
RightUpLeg  -10.125 -7.09823 -3.4183
RightLeg  38.144 8.64989 5.87623
RightFoot  0.0132703 4.14903e-005 0.0182041
RightToes  -43.4134 -0.24514 -0.332851
